<?xml version="1.0" standalone="no"?>
<!DOCTYPE svg PUBLIC "-//W3C//DTD SVG 20010904//EN"
 "http://www.w3.org/TR/2001/REC-SVG-20010904/DTD/svg10.dtd">
<svg version="1.0" xmlns="http://www.w3.org/2000/svg"
 width="500.000000pt" height="500.000000pt" viewBox="0 0 500.000000 500.000000"
 preserveAspectRatio="xMidYMid meet">
<metadata>
Created by potrace 1.14, written by Peter Selinger 2001-2017
</metadata>
<g transform="translate(0.000000,500.000000) scale(0.100000,-0.100000)"
fill="#000000" stroke="none">
<path d="M2340 4733 c-97 -7 -310 -44 -419 -73 -255 -67 -542 -207 -751 -364
-30 -22 -57 -43 -60 -46 -3 -3 -34 -30 -70 -60 -254 -215 -467 -510 -604 -838
-59 -141 -121 -360 -140 -497 -3 -22 -10 -69 -15 -105 -15 -111 -10 -432 10
-565 53 -361 183 -689 389 -980 106 -150 262 -317 405 -434 338 -277 764 -453
1200 -499 144 -15 432 -6 568 17 805 138 1437 647 1736 1398 64 161 119 381
139 552 9 88 9 460 -1 536 -102 762 -560 1402 -1241 1735 -207 101 -468 182
-665 205 -30 4 -63 9 -75 11 -26 6 -345 11 -406 7z"/>
</g>
</svg>
